HIERARCHY
ROOT root
{
	OFFSET 0.00 0.00 0.00
	CHANNELS 6 Xposition Yposition Zposition Zrotation Xrotation Yrotation
	JOINT lowerback
	{
		OFFSET 0 0 0
		CHANNELS 6 Xposition Yposition Zposition Zrotation Xrotation Yrotation
		JOINT upperback
		{
			OFFSET -0.214371 12.3768 -1.12219
			CHANNELS 6 Xposition Yposition Zposition Zrotation Xrotation Yrotation
			JOINT thorax
			{
				OFFSET -0.00137213 12.3873 0.296195
				CHANNELS 6 Xposition Yposition Zposition Zrotation Xrotation Yrotation
				JOINT lowerneck
				{
					OFFSET 0.0883157 12.5016 0.82912
					CHANNELS 6 Xposition Yposition Zposition Zrotation Xrotation Yrotation
					JOINT upperneck
					{
						OFFSET -1 10.1794 0.943522
						CHANNELS 6 Xposition Yposition Zposition Zrotation Xrotation Yrotation
						JOINT head
						{
							OFFSET 0.667525 10.2797 -1.57149
							CHANNELS 6 Xposition Yposition Zposition Zrotation Xrotation Yrotation
							End Site
							{
								OFFSET 0 0 0
							}
						}
					}
				}
				JOINT lclavicle
				{
					OFFSET 0.0883157 12.5016 0.82912
					CHANNELS 6 Xposition Yposition Zposition Zrotation Xrotation Yrotation
					JOINT lhumerus
					{
						OFFSET 20.61 4.45006 1.43784
						CHANNELS 6 Xposition Yposition Zposition Zrotation Xrotation Yrotation
						JOINT lradius
						{
							OFFSET 0 -30.3438 0
							CHANNELS 6 Xposition Yposition Zposition Zrotation Xrotation Yrotation
							JOINT lwrist
							{
								OFFSET 0 -18.964 0
								CHANNELS 6 Xposition Yposition Zposition Zrotation Xrotation Yrotation
								JOINT lhand
								{
									OFFSET 0 -9.48199 0
									CHANNELS 6 Xposition Yposition Zposition Zrotation Xrotation Yrotation
									JOINT lfingers
									{
										OFFSET 0 -3.17138 0
										CHANNELS 6 Xposition Yposition Zposition Zrotation Xrotation Yrotation
										End Site
										{
											OFFSET 0 -2.55685 0
										}
									}
								}
								JOINT lthumb
								{
									OFFSET 0 -9.48199 0
									CHANNELS 6 Xposition Yposition Zposition Zrotation Xrotation Yrotation
									End Site
									{
										OFFSET 0 -3.67114 0
									}
								}
							}
						}
					}
				}
				JOINT rclavicle
				{
					OFFSET 0.0883157 12.5016 0.82912
					CHANNELS 6 Xposition Yposition Zposition Zrotation Xrotation Yrotation
					JOINT rhumerus
					{
						OFFSET -20.61 4.45 1.44
						CHANNELS 6 Xposition Yposition Zposition Zrotation Xrotation Yrotation
						JOINT rradius
						{
							OFFSET 0 -29.5102 0
							CHANNELS 6 Xposition Yposition Zposition Zrotation Xrotation Yrotation
							JOINT rwrist
							{
								OFFSET 0 -19.2342 0
								CHANNELS 6 Xposition Yposition Zposition Zrotation Xrotation Yrotation
								JOINT rhand
								{
									OFFSET 0 -9.61712 0
									CHANNELS 6 Xposition Yposition Zposition Zrotation Xrotation Yrotation
									JOINT rfingers
									{
										OFFSET 0 -3.29215 0
										CHANNELS 6 Xposition Yposition Zposition Zrotation Xrotation Yrotation
										End Site
										{
											OFFSET 0 -2.557 0
										}
									}
								}
								JOINT rthumb
								{
									OFFSET 0 -9.61712 0
									CHANNELS 6 Xposition Yposition Zposition Zrotation Xrotation Yrotation
									End Site
									{
										OFFSET 0 -3.671 0
									}
								}
							}
						}
					}
				}
			}
		}
	}
	JOINT rfemur
	{
		OFFSET -8.46272 -9.62775 4.76248
		CHANNELS 6 Xposition Yposition Zposition Zrotation Xrotation Yrotation
		JOINT rtibia
		{
			OFFSET 1.00552e-005 -38.0331 0
			CHANNELS 6 Xposition Yposition Zposition Zrotation Xrotation Yrotation
			JOINT rfoot
			{
				OFFSET 1.14428e-005 -43.2815 0
				CHANNELS 6 Xposition Yposition Zposition Zrotation Xrotation Yrotation
				JOINT rtoes
				{
					OFFSET 0 -14.1868 -3.08763
					CHANNELS 6 Xposition Yposition Zposition Zrotation Xrotation Yrotation
					End Site
					{
						OFFSET 0 -7.27332 0
					}
				}
			}
		}
	}
	JOINT lfemur
	{
		OFFSET 9.10607 -9.62778 4.76249
		CHANNELS 6 Xposition Yposition Zposition Zrotation Xrotation Yrotation
		JOINT ltibia
		{
			OFFSET -1.01399e-005 -38.3535 0
			CHANNELS 6 Xposition Yposition Zposition Zrotation Xrotation Yrotation
			JOINT lfoot
			{
				OFFSET -1.12937e-005 -42.7176 0
				CHANNELS 6 Xposition Yposition Zposition Zrotation Xrotation Yrotation
				JOINT ltoes
				{
					OFFSET 0 -13.9965 -2.83857
					CHANNELS 6 Xposition Yposition Zposition Zrotation Xrotation Yrotation
					End Site
					{
						OFFSET 0 -7.16348 0
					}
				}
			}
		}
	}
}
MOTION
Frames: 10
Frame Time: 0.00833333
0.173711	91.5287	22.9794	-0.0910642	4.40976	-14.7365	0 0 0 0.219095	-2.22462	-2.16717	-0.214371 12.3768 -1.12219 -0.17405	1.41935	-2.89636	-0.00137213 12.3873 0.296195 -0.484675	2.67713	-1.43909	0.0883157 12.5016 0.82912 5.24666	-2.94455	7.10451	-1 10.1794 0.943522 -12.7544	36.49	11.7904	0.667525 10.2797 -1.57149 -2.98507	13.5494	3.5365	0.0883157 12.5016 0.82912 -15	0	-0	20.61 4.45006 1.43784 20.6623	-22.3123	-179.688	0 -30.3438 0 -0	34.0162	-0	0 -18.964 0 1.40334e-014	-2.58034e-017	-90.2107	0 -9.48199 0 1.22245	4.37968	-2.58917e-014	0 -3.17138 0 -0	7.12502	-0	0 -9.48199 0 25	15	-1.36605e-015	0.0883157 12.5016 0.82912 15	0	-0	-20.61 4.45 1.44 -23.6039	5.18603	139.125	0 -29.5102 0 -0	20.4009	-0	0 -19.2342 0 1.75024e-015	-4.63665e-015	131.361	0 -9.61712 0 1.22	4.38	-0	0 -3.29215 0 -0	7.12502	-0	0 -9.61712 0 25	15	-7.97034e-015	-8.46272 -9.62775 4.76248 -9.75982	-24.2558	11.9805	1.00552e-005 -38.0331 0 -0	29.4135	-0	1.14428e-005 -43.2815 0 -48.1671	-63.1097	-51.3971	0 -14.1868 -3.08763 -0	-26.4182	-0	9.10607 -9.62778 4.76249 -0.825039	18.9294	7.31049	-1.01399e-005 -38.3535 0 -0	0.0719876	-0	-1.12937e-005 -42.7176 0 40.5983	-72.16	41.9979	0 -13.9965 -2.83857 -0	-19.9049	-0
-0.114365	91.47	23.3206	-0.0144754	4.28314	-14.3618	0 0 0 0.232843	-2.23422	-2.19754	-0.214371 12.3768 -1.12219 -0.100459	1.43213	-2.9395	-0.00137213 12.3873 0.296195 -0.420937	2.69814	-1.46081	0.0883157 12.5016 0.82912 5.1915	-2.93465	7.06131	-1 10.1794 0.943522 -12.7623	36.6687	11.7482	0.667525 10.2797 -1.57149 -2.98508	13.6219	3.49827	0.0883157 12.5016 0.82912 -15	0	-0	20.61 4.45006 1.43784 20.5597	-22.3719	-179.729	0 -30.3438 0 -0	34.0392	-0	0 -18.964 0 1.40333e-014	-3.61024e-017	-90.2948	0 -9.48199 0 1.22245	4.37968	-2.58917e-014	0 -3.17138 0 -0	7.12502	-0	0 -9.48199 0 25	15	-1.36605e-015	0.0883157 12.5016 0.82912 15	0	-0	-20.61 4.45 1.44 -23.8832	5.11009	138.406	0 -29.5102 0 -0	20.0393	-0	0 -19.2342 0 1.79115e-015	-4.6827e-015	131.864	0 -9.61712 0 1.22	4.38	-0	0 -3.29215 0 -0	7.12502	-0	0 -9.61712 0 25	15	-7.97034e-015	-8.46272 -9.62775 4.76248 -9.7485	-23.8743	12.0666	1.00552e-005 -38.0331 0 -0	29.7795	-0	1.14428e-005 -43.2815 0 -49.5878	-63.1572	-52.7756	0 -14.1868 -3.08763 -0	-26.5358	-0	9.10607 -9.62778 4.76249 -0.805827	19.2015	7.19646	-1.01399e-005 -38.3535 0 -0	0.169635	-0	-1.12937e-005 -42.7176 0 41.0949	-72.1216	42.5036	0 -13.9965 -2.83857 -0	-19.8745	-0
-0.397681	91.4361	23.6729	0.0606765	4.17531	-14.0027	0 0 0 0.269543	-2.2642	-2.22733	-0.214371 12.3768 -1.12219 -0.0233376	1.44106	-2.98299	-0.00137213 12.3873 0.296195 -0.367289	2.72572	-1.48226	0.0883157 12.5016 0.82912 5.1422	-2.93625	7.01946	-1 10.1794 0.943522 -12.7814	36.8438	11.7112	0.667525 10.2797 -1.57149 -2.98888	13.6969	3.46172	0.0883157 12.5016 0.82912 -15	0	-0	20.61 4.45006 1.43784 20.4593	-22.4229	-179.739	0 -30.3438 0 -0	34.0526	-0	0 -18.964 0 1.40333e-014	-4.60099e-017	-90.3757	0 -9.48199 0 1.22245	4.37968	-2.58917e-014	0 -3.17138 0 -0	7.12502	-0	0 -9.48199 0 25	15	-1.36605e-015	0.0883157 12.5016 0.82912 15	0	-0	-20.61 4.45 1.44 -24.1701	5.00363	137.701	0 -29.5102 0 -0	19.6854	-0	0 -19.2342 0 1.83221e-015	-4.72813e-015	132.364	0 -9.61712 0 1.22	4.38	-0	0 -3.29215 0 -0	7.12502	-0	0 -9.61712 0 25	15	-7.97034e-015	-8.46272 -9.62775 4.76248 -9.73829	-23.5017	12.1415	1.00552e-005 -38.0331 0 -0	30.1211	-0	1.14428e-005 -43.2815 0 -51.0184	-63.2415	-54.1477	0 -14.1868 -3.08763 -0	-26.6475	-0	9.10607 -9.62778 4.76249 -0.788491	19.4592	7.1003	-1.01399e-005 -38.3535 0 -0	0.255959	-0	-1.12937e-005 -42.7176 0 41.5247	-72.035	42.9496	0 -13.9965 -2.83857 -0	-19.7993	-0
-0.669969	91.4265	24.0349	0.135558	4.08818	-13.6609	0 0 0 0.330983	-2.31444	-2.25618	-0.214371 12.3768 -1.12219 0.0567764	1.44643	-3.02644	-0.00137213 12.3873 0.296195 -0.325267	2.75997	-1.50322	0.0883157 12.5016 0.82912 5.09966	-2.95001	6.97819	-1 10.1794 0.943522 -12.8109	37.0073	11.6777	0.667525 10.2797 -1.57149 -2.99685	13.7706	3.42707	0.0883157 12.5016 0.82912 -15	0	-0	20.61 4.45006 1.43784 20.3607	-22.4651	-179.723	0 -30.3438 0 -0	34.0604	-0	0 -18.964 0 1.40332e-014	-5.48026e-017	-90.4475	0 -9.48199 0 1.22245	4.37968	-2.58917e-014	0 -3.17138 0 -0	7.12502	-0	0 -9.48199 0 25	15	-1.36605e-015	0.0883157 12.5016 0.82912 15	0	-0	-20.61 4.45 1.44 -24.4649	4.87182	137.032	0 -29.5102 0 -0	19.3527	-0	0 -19.2342 0 1.87142e-015	-4.77077e-015	132.837	0 -9.61712 0 1.22	4.38	-0	0 -3.29215 0 -0	7.12502	-0	0 -9.61712 0 25	15	-7.97034e-015	-8.46272 -9.62775 4.76248 -9.73938	-23.1459	12.1841	1.00552e-005 -38.0331 0 -0	30.4323	-0	1.14428e-005 -43.2815 0 -52.3784	-63.355	-55.438	0 -14.1868 -3.08763 -0	-26.7435	-0	9.10607 -9.62778 4.76249 -0.773773	19.7004	7.02293	-1.01399e-005 -38.3535 0 -0	0.329661	-0	-1.12937e-005 -42.7176 0 41.8505	-71.9045	43.298	0 -13.9965 -2.83857 -0	-19.6797	-0
-0.924763	91.4367	24.4037	0.21118	4.02248	-13.3381	0 0 0 0.417165	-2.38291	-2.28366	-0.214371 12.3768 -1.12219 0.13924	1.44746	-3.06929	-0.00137213 12.3873 0.296195 -0.295346	2.79982	-1.52342	0.0883157 12.5016 0.82912 5.06479	-2.97586	6.9367	-1 10.1794 0.943522 -12.8487	37.1506	11.6456	0.667525 10.2797 -1.57149 -3.00905	13.8388	3.39455	0.0883157 12.5016 0.82912 -15	0	-0	20.61 4.45006 1.43784 20.2648	-22.498	-179.687	0 -30.3438 0 -0	34.0679	-0	0 -18.964 0 1.40331e-014	-6.17707e-017	-90.5044	0 -9.48199 0 1.22245	4.37968	-2.58917e-014	0 -3.17138 0 -0	7.12502	-0	0 -9.48199 0 25	15	-1.36605e-015	0.0883157 12.5016 0.82912 15	0	-0	-20.61 4.45 1.44 -24.7673	4.72124	136.422	0 -29.5102 0 -0	19.0552	-0	0 -19.2342 0 1.90645e-015	-4.80826e-015	133.256	0 -9.61712 0 1.22	4.38	-0	0 -3.29215 0 -0	7.12502	-0	0 -9.61712 0 25	15	-7.97034e-015	-8.46272 -9.62775 4.76248 -9.75911	-22.8123	12.1771	1.00552e-005 -38.0331 0 -0	30.7096	-0	1.14428e-005 -43.2815 0 -53.6021	-63.493	-56.586	0 -14.1868 -3.08763 -0	-26.8197	-0	9.10607 -9.62778 4.76249 -0.762228	19.9259	6.96515	-1.01399e-005 -38.3535 0 -0	0.387063	-0	-1.12937e-005 -42.7176 0 42.0378	-71.7349	43.5139	0 -13.9965 -2.83857 -0	-19.5186	-0
-1.15739	91.461	24.7753	0.288251	3.97798	-13.0355	0 0 0 0.526325	-2.46596	-2.30939	-0.214371 12.3768 -1.12219 0.223595	1.44661	-3.11092	-0.00137213 12.3873 0.296195 -0.276913	2.84302	-1.54259	0.0883157 12.5016 0.82912 5.03842	-3.01302	6.89429	-1 10.1794 0.943522 -12.8919	37.2654	11.6125	0.667525 10.2797 -1.57149 -3.02524	13.8973	3.36436	0.0883157 12.5016 0.82912 -15	0	-0	20.61 4.45006 1.43784 20.1734	-22.5205	-179.637	0 -30.3438 0 -0	34.0809	-0	0 -18.964 0 1.40331e-014	-6.63384e-017	-90.5417	0 -9.48199 0 1.22245	4.37968	-2.58917e-014	0 -3.17138 0 -0	7.12502	-0	0 -9.48199 0 25	15	-1.36605e-015	0.0883157 12.5016 0.82912 15	0	-0	-20.61 4.45 1.44 -25.0761	4.55931	135.895	0 -29.5102 0 -0	18.8066	-0	0 -19.2342 0 1.93498e-015	-4.83842e-015	133.595	0 -9.61712 0 1.22	4.38	-0	0 -3.29215 0 -0	7.12502	-0	0 -9.61712 0 25	15	-7.97034e-015	-8.46272 -9.62775 4.76248 -9.80139	-22.5037	12.1098	1.00552e-005 -38.0331 0 -0	30.9519	-0	1.14428e-005 -43.2815 0 -54.644	-63.6517	-57.5511	0 -14.1868 -3.08763 -0	-26.8759	-0	9.10607 -9.62778 4.76249 -0.753987	20.1391	6.92731	-1.01399e-005 -38.3535 0 -0	0.421452	-0	-1.12937e-005 -42.7176 0 42.0577	-71.5305	43.5678	0 -13.9965 -2.83857 -0	-19.322	-0
-1.3675	91.493	25.1469	0.367078	3.9537	-12.7537	0 0 0 0.655098	-2.55868	-2.33315	-0.214371 12.3768 -1.12219 0.30915	1.44069	-3.15089	-0.00137213 12.3873 0.296195 -0.268331	2.88641	-1.56061	0.0883157 12.5016 0.82912 5.02128	-3.05997	6.8504	-1 10.1794 0.943522 -12.9364	37.3442	11.5759	0.667525 10.2797 -1.57149 -3.04486	13.9419	3.33672	0.0883157 12.5016 0.82912 -15	0	-0	20.61 4.45006 1.43784 20.0896	-22.5316	-179.581	0 -30.3438 0 -0	34.1052	-0	0 -18.964 0 1.40331e-014	-6.81378e-017	-90.5564	0 -9.48199 0 1.22245	4.37968	-2.58917e-014	0 -3.17138 0 -0	7.12502	-0	0 -9.48199 0 25	15	-1.36605e-015	0.0883157 12.5016 0.82912 15	0	-0	-20.61 4.45 1.44 -25.3892	4.39356	135.473	0 -29.5102 0 -0	18.6194	-0	0 -19.2342 0 1.95513e-015	-4.85948e-015	133.833	0 -9.61712 0 1.22	4.38	-0	0 -3.29215 0 -0	7.12502	-0	0 -9.61712 0 25	15	-7.97034e-015	-8.46272 -9.62775 4.76248 -9.8665	-22.2205	11.9787	1.00552e-005 -38.0331 0 -0	31.1594	-0	1.14428e-005 -43.2815 0 -55.4829	-63.827	-58.3161	0 -14.1868 -3.08763 -0	-26.9149	-0	9.10607 -9.62778 4.76249 -0.748563	20.3456	6.9091	-1.01399e-005 -38.3535 0 -0	0.423309	-0	-1.12937e-005 -42.7176 0 41.8877	-71.2951	43.4366	0 -13.9965 -2.83857 -0	-19.0985	-0
-1.55609	91.5315	25.5106	0.447511	3.94827	-12.4924	0 0 0 0.798827	-2.65554	-2.35498	-0.214371 12.3768 -1.12219 0.395519	1.42972	-3.18903	-0.00137213 12.3873 0.296195 -0.268817	2.92621	-1.57751	0.0883157 12.5016 0.82912 5.01391	-3.11465	6.80474	-1 10.1794 0.943522 -12.978	37.381	11.5336	0.667525 10.2797 -1.57149 -3.06711	13.9691	3.31184	0.0883157 12.5016 0.82912 -15	0	-0	20.61 4.45006 1.43784 20.0173	-22.5305	-179.527	0 -30.3438 0 -0	34.1459	-0	0 -18.964 0 1.40331e-014	-6.69989e-017	-90.5471	0 -9.48199 0 1.22245	4.37968	-2.58917e-014	0 -3.17138 0 -0	7.12502	-0	0 -9.48199 0 25	15	-1.36605e-015	0.0883157 12.5016 0.82912 15	0	-0	-20.61 4.45 1.44 -25.7038	4.23098	135.177	0 -29.5102 0 -0	18.504	-0	0 -19.2342 0 1.96523e-015	-4.86999e-015	133.952	0 -9.61712 0 1.22	4.38	-0	0 -3.29215 0 -0	7.12502	-0	0 -9.61712 0 25	15	-7.97034e-015	-8.46272 -9.62775 4.76248 -9.95136	-21.9605	11.7883	1.00552e-005 -38.0331 0 -0	31.3333	-0	1.14428e-005 -43.2815 0 -56.1219	-64.0138	-58.8867	0 -14.1868 -3.08763 -0	-26.941	-0	9.10607 -9.62778 4.76249 -0.744751	20.5524	6.90938	-1.01399e-005 -38.3535 0 -0	0.381523	-0	-1.12937e-005 -42.7176 0 41.5146	-71.0314	43.1066	0 -13.9965 -2.83857 -0	-18.8593	-0
-1.73135	91.5739	25.8682	0.528958	3.96009	-12.2505	0 0 0 0.951982	-2.75097	-2.37525	-0.214371 12.3768 -1.12219 0.482435	1.4127	-3.22554	-0.00137213 12.3873 0.296195 -0.271193	2.9585	-1.59353	0.0883157 12.5016 0.82912 5.0166	-3.17464	6.75728	-1 10.1794 0.943522 -13.0124	37.3715	11.4839	0.667525 10.2797 -1.57149 -3.09101	13.9762	3.28993	0.0883157 12.5016 0.82912 -15	0	-0	20.61 4.45006 1.43784 19.9608	-22.5171	-179.482	0 -30.3438 0 -0	34.2069	-0	0 -18.964 0 1.40331e-014	-6.30684e-017	-90.515	0 -9.48199 0 1.22245	4.37968	-2.58917e-014	0 -3.17138 0 -0	7.12502	-0	0 -9.48199 0 25	15	-1.36605e-015	0.0883157 12.5016 0.82912 15	0	-0	-20.61 4.45 1.44 -26.0168	4.07736	135.023	0 -29.5102 0 -0	18.4682	-0	0 -19.2342 0 1.96412e-015	-4.86884e-015	133.939	0 -9.61712 0 1.22	4.38	-0	0 -3.29215 0 -0	7.12502	-0	0 -9.61712 0 25	15	-7.97034e-015	-8.46272 -9.62775 4.76248 -10.0501	-21.72	11.5496	1.00552e-005 -38.0331 0 -0	31.4753	-0	1.14428e-005 -43.2815 0 -56.5858	-64.2053	-59.2891	0 -14.1868 -3.08763 -0	-26.9585	-0	9.10607 -9.62778 4.76249 -0.740633	20.7664	6.92618	-1.01399e-005 -38.3535 0 -0	0.285542	-0	-1.12937e-005 -42.7176 0 40.9362	-70.7417	42.5748	0 -13.9965 -2.83857 -0	-18.6175	-0
-1.90023	91.6173	26.2183	0.610433	3.98755	-12.0259	0 0 0 1.10866	-2.83983	-2.39462	-0.214371 12.3768 -1.12219 0.56982	1.38868	-3.261	-0.00137213 12.3873 0.296195 -0.273602	2.97972	-1.60911	0.0883157 12.5016 0.82912 5.02937	-3.23745	6.70827	-1 10.1794 0.943522 -13.0359	37.3135	11.4257	0.667525 10.2797 -1.57149 -3.11551	13.9612	3.2712	0.0883157 12.5016 0.82912 -15	0	-0	20.61 4.45006 1.43784 19.9245	-22.4926	-179.451	0 -30.3438 0 -0	34.2904	-0	0 -18.964 0 1.40332e-014	-5.66881e-017	-90.4629	0 -9.48199 0 1.22245	4.37968	-2.58917e-014	0 -3.17138 0 -0	7.12502	-0	0 -9.48199 0 25	15	-1.36605e-015	0.0883157 12.5016 0.82912 15	0	-0	-20.61 4.45 1.44 -26.325	3.93683	135.02	0 -29.5102 0 -0	18.5167	-0	0 -19.2342 0 1.9514e-015	-4.8556e-015	133.789	0 -9.61712 0 1.22	4.38	-0	0 -3.29215 0 -0	7.12502	-0	0 -9.61712 0 25	15	-7.97034e-015	-8.46272 -9.62775 4.76248 -10.1551	-21.4943	11.2789	1.00552e-005 -38.0331 0 -0	31.5873	-0	1.14428e-005 -43.2815 0 -56.9159	-64.3937	-59.5646	0 -14.1868 -3.08763 -0	-26.971	-0	9.10607 -9.62778 4.76249 -0.733685	20.9927	6.95683	-1.01399e-005 -38.3535 0 -0	0.128267	-0	-1.12937e-005 -42.7176 0 40.1627	-70.4281	41.8506	0 -13.9965 -2.83857 -0	-18.3882	-0
